<?xml version="1.0" encoding="UTF-8" standalone="no"?>
<svg width="803px" height="302px" viewBox="0 0 803 302" version="1.1" xmlns="http://www.w3.org/2000/svg" xmlns:xlink="http://www.w3.org/1999/xlink">
    <!-- Generator: Sketch 3.8.3 (29802) - http://www.bohemiancoding.com/sketch -->
    <title>Vectorized</title>
    <desc>Created with Sketch.</desc>
    <defs></defs>
    <g id="Page-1" stroke="none" stroke-width="1" fill="none" fill-rule="evenodd">
        <g id="Vector-Version" fill="#000000">
            <path d="M103.598175,103.476467 L131.903314,0 L158.945685,103.26379 L262.453721,75.1173269 L186.028763,150.264562 L262.288813,226.831581 L159.126377,198.633195 L131.833945,302 L103.477713,198.826764 L0,226.961181 L76.4399116,150.448577 L0.20520001,75.2834808 L103.598175,103.476467 Z M335.539062,85.8945312 C335.604167,85.992188 335.539063,86.2851538 335.34375,86.7734375 C335.148437,87.2617212 334.871747,87.8557908 334.513672,88.5556641 C334.155597,89.2555374 333.740562,90.0123657 333.268555,90.8261719 C332.796547,91.639978 332.316409,92.4130823 331.828125,93.1455078 C331.339841,93.8779333 330.875979,94.5452444 330.436523,95.1474609 C329.997068,95.7496775 329.630861,96.1647124 329.337891,96.3925781 L326.408203,95.6601562 C325.952472,94.6184844 325.40723,93.6175178 324.772461,92.6572266 C324.137692,91.6969353 323.389002,90.8424517 322.526367,90.09375 C321.663733,89.3450483 320.68718,88.7509788 319.59668,88.3115234 C318.506179,87.8720681 317.293626,87.6523438 315.958984,87.6523438 C314.656895,87.6523438 313.403652,87.8395164 312.199219,88.2138672 C310.994786,88.588218 309.741543,89.2799429 308.439453,90.2890625 C306.388662,91.8841226 304.679694,93.8860557 303.3125,96.2949219 C301.945306,98.7037881 300.846684,101.234687 300.016602,103.887695 C299.186519,106.540703 298.600588,109.177396 298.258789,111.797852 C297.91699,114.418307 297.746094,116.753896 297.746094,118.804688 C297.746094,122.352882 298.201818,125.32323 299.113281,127.71582 C300.024744,130.10841 301.172194,132.020826 302.555664,133.453125 C303.939135,134.885424 305.444653,135.910804 307.072266,136.529297 C308.699878,137.14779 310.246086,137.457031 311.710938,137.457031 C312.524744,137.457031 313.460607,137.367514 314.518555,137.188477 C315.576503,137.009439 316.764642,136.65137 318.083008,136.114258 C319.401374,135.577146 320.874341,134.852869 322.501953,133.941406 C324.129565,133.029943 325.952464,131.841804 327.970703,130.376953 C328.133464,130.442058 328.304361,130.637368 328.483398,130.962891 C328.662436,131.288413 328.833333,131.638344 328.996094,132.012695 C329.158855,132.387046 329.305338,132.736978 329.435547,133.0625 C329.565756,133.388022 329.663411,133.599609 329.728516,133.697266 C327.514963,135.910818 325.342133,137.758131 323.209961,139.239258 C321.077789,140.720385 319.027028,141.908524 317.057617,142.803711 C315.088206,143.698898 313.208342,144.341795 311.417969,144.732422 C309.627595,145.123049 307.967456,145.318359 306.4375,145.318359 C303.605455,145.318359 300.952486,144.789393 298.478516,143.731445 C296.004545,142.673497 293.839853,141.135427 291.984375,139.117188 C290.128897,137.098948 288.664068,134.616877 287.589844,131.670898 C286.51562,128.72492 285.978516,125.363951 285.978516,121.587891 C285.978516,118.527979 286.304033,115.411149 286.955078,112.237305 C287.606123,109.063461 288.590814,105.971044 289.90918,102.959961 C291.227546,99.9488782 292.895823,97.0843235 294.914062,94.3662109 C296.932302,91.6480984 299.30858,89.1985786 302.042969,87.0175781 C303.21485,86.1061152 304.525058,85.2760454 305.973633,84.5273438 C307.422208,83.7786421 308.919589,83.1438828 310.46582,82.6230469 C312.012052,82.1022109 313.590812,81.7034519 315.202148,81.4267578 C316.813485,81.1500637 318.384107,81.0117188 319.914062,81.0117188 C321.509123,81.0117188 323.087883,81.1419258 324.650391,81.4023438 C326.212898,81.6627617 327.685865,82.0126931 329.069336,82.4521484 C330.452806,82.8916038 331.697911,83.4042939 332.804688,83.9902344 C333.911464,84.5761748 334.822913,85.2109341 335.539062,85.8945312 Z M384.953125,138.628906 C383.455722,139.507817 381.893237,140.386714 380.265625,141.265625 C378.638013,142.144536 377.051115,142.933916 375.504883,143.633789 C373.958651,144.333662 372.526374,144.903318 371.208008,145.342773 C369.889642,145.782229 368.774744,146.001953 367.863281,146.001953 C366.919266,146.001953 366.07292,145.489263 365.324219,144.463867 C364.575517,143.438471 364.201172,142.046884 364.201172,140.289062 C364.201172,139.703122 364.298827,138.718431 364.494141,137.334961 C364.689454,135.95149 364.933592,134.364592 365.226562,132.574219 C365.519533,130.783845 365.828774,128.879567 366.154297,126.861328 C366.479819,124.843089 366.789061,122.914397 367.082031,121.075195 C367.375001,119.235993 367.61914,117.567716 367.814453,116.070312 C368.009767,114.572909 368.107422,113.466149 368.107422,112.75 C368.107422,111.708328 368.058594,110.853844 367.960938,110.186523 C367.863281,109.519202 367.716798,108.990236 367.521484,108.599609 C367.326171,108.208982 367.073895,107.94043 366.764648,107.793945 C366.455402,107.64746 366.089195,107.574219 365.666016,107.574219 C365.242836,107.574219 364.640629,107.704426 363.859375,107.964844 C363.078121,108.225262 362.207362,108.656573 361.24707,109.258789 C360.286779,109.861006 359.277675,110.6748 358.219727,111.700195 C357.161779,112.725591 356.177088,114.019523 355.265625,115.582031 C354.354162,117.144539 353.589196,119.089507 352.970703,121.416992 C352.35221,123.744478 351.815106,126.373032 351.359375,129.302734 C351.066405,131.093108 350.838542,132.606765 350.675781,133.84375 C350.51302,135.080735 350.399089,136.138667 350.333984,137.017578 C350.26888,137.896489 350.22819,138.637041 350.211914,139.239258 C350.195638,139.841474 350.203776,140.402992 350.236328,140.923828 C349.813149,141.151694 349.080734,141.501625 348.039062,141.973633 C346.997391,142.44564 345.890631,142.942055 344.71875,143.462891 C343.546869,143.983727 342.440109,144.480141 341.398438,144.952148 C340.356766,145.424156 339.640627,145.774087 339.25,146.001953 L337.248047,144.146484 C337.541017,142.388663 337.899086,140.256523 338.322266,137.75 C338.745445,135.243477 339.201169,132.517267 339.689453,129.571289 C340.177737,126.625311 340.682289,123.524756 341.203125,120.269531 C341.723961,117.014307 342.236651,113.767269 342.741211,110.52832 C343.245771,107.289372 343.717771,104.139989 344.157227,101.080078 C344.596682,98.020167 344.987303,95.1881641 345.329102,92.5839844 C345.6709,89.9798047 345.939452,87.6930437 346.134766,85.7236328 C346.330079,83.7542219 346.427734,82.2487031 346.427734,81.2070312 C346.427734,80.4583296 346.370769,79.86426 346.256836,79.4248047 C346.142903,78.9853494 345.99642,78.6598318 345.817383,78.4482422 C345.638345,78.2366526 345.426759,78.0983076 345.182617,78.0332031 C344.938475,77.9680986 344.686199,77.9355469 344.425781,77.9355469 C344.100259,77.9355469 343.652672,78.0087883 343.083008,78.1552734 C342.513344,78.3017585 341.93555,78.4563794 341.349609,78.6191406 C340.666012,78.8144541 339.933598,79.0260405 339.152344,79.2539062 L338.371094,75.8847656 C339.738288,75.2662729 341.300772,74.6070999 343.058594,73.9072266 C344.816415,73.2073533 346.53352,72.5481802 348.209961,71.9296875 C349.886402,71.3111948 351.416334,70.7985046 352.799805,70.3916016 C354.183275,69.9846985 355.184242,69.78125 355.802734,69.78125 C356.714197,69.78125 357.479164,70.0742158 358.097656,70.6601562 C358.716149,71.2460967 359.025391,72.2877529 359.025391,73.7851562 C359.025391,74.5664102 358.935873,75.803377 358.756836,77.4960938 C358.577799,79.1888105 358.33366,81.1337781 358.024414,83.3310547 C357.715168,85.5283313 357.381512,87.8639199 357.023438,90.3378906 C356.665363,92.8118613 356.299156,95.2125535 355.924805,97.5400391 C355.550454,99.8675247 355.20866,102.015941 354.899414,103.985352 C354.590168,105.954762 354.337892,107.525385 354.142578,108.697266 C357.951191,104.921205 361.540022,102.243823 364.90918,100.665039 C368.278337,99.0862551 371.411444,98.296875 374.308594,98.296875 C375.317713,98.296875 376.221025,98.4108062 377.018555,98.6386719 C377.816085,98.8665376 378.475258,99.2734346 378.996094,99.859375 C379.51693,100.445315 379.915689,101.250971 380.192383,102.276367 C380.469077,103.301763 380.607422,104.595695 380.607422,106.158203 C380.607422,107.297532 380.509767,108.64843 380.314453,110.210938 C380.11914,111.773445 379.866864,113.441723 379.557617,115.21582 C379.248371,116.989918 378.922853,118.79654 378.581055,120.635742 C378.239256,122.474944 377.913739,124.240877 377.604492,125.933594 C377.295246,127.626311 377.04297,129.180657 376.847656,130.59668 C376.652343,132.012702 376.554688,133.176428 376.554688,134.087891 C376.554688,135.194667 376.70117,135.951495 376.994141,136.358398 C377.287111,136.765302 377.72656,136.96875 378.3125,136.96875 C379.223963,136.96875 380.045895,136.830405 380.77832,136.553711 C381.510746,136.277017 382.479161,135.878258 383.683594,135.357422 L384.953125,138.628906 Z M412.589844,138.628906 C411.059888,139.540369 409.497404,140.435542 407.902344,141.314453 C406.307284,142.193364 404.769213,142.982744 403.288086,143.682617 C401.806959,144.38249 400.423509,144.944008 399.137695,145.367188 C397.851882,145.790367 396.75326,146.001953 395.841797,146.001953 C394.735021,146.001953 393.799157,145.489263 393.03418,144.463867 C392.269202,143.438471 391.886719,142.046884 391.886719,140.289062 C391.886719,139.312495 392.00065,137.994149 392.228516,136.333984 C392.456381,134.67382 392.733071,132.850921 393.058594,130.865234 C393.384116,128.879547 393.742186,126.812511 394.132812,124.664062 C394.523439,122.515614 394.881509,120.472991 395.207031,118.536133 C395.532554,116.599274 395.809244,114.865893 396.037109,113.335938 C396.264975,111.805982 396.378906,110.634119 396.378906,109.820312 C396.378906,109.071611 396.330079,108.477541 396.232422,108.038086 C396.134765,107.598631 396.004558,107.273113 395.841797,107.061523 C395.679036,106.849934 395.467449,106.711589 395.207031,106.646484 C394.946613,106.58138 394.669923,106.548828 394.376953,106.548828 C394.116535,106.548828 393.734052,106.605794 393.229492,106.719727 C392.724932,106.833659 392.228518,106.972004 391.740234,107.134766 C391.154294,107.297527 390.535811,107.492837 389.884766,107.720703 L389.005859,104.449219 C390.373054,103.830726 391.919262,103.163415 393.644531,102.447266 C395.3698,101.731116 397.054354,101.063805 398.698242,100.445312 C400.342131,99.8268198 401.831374,99.3141296 403.166016,98.9072266 C404.500658,98.5003235 405.47721,98.296875 406.095703,98.296875 C407.007166,98.296875 407.715167,98.6061167 408.219727,99.2246094 C408.724286,99.8431021 408.976562,100.901034 408.976562,102.398438 C408.976562,103.342453 408.862631,104.652661 408.634766,106.329102 C408.4069,108.005542 408.113934,109.860992 407.755859,111.895508 C407.397785,113.930023 407.015302,116.045887 406.608398,118.243164 C406.201495,120.440441 405.819012,122.556305 405.460938,124.59082 C405.102863,126.625336 404.809897,128.480786 404.582031,130.157227 C404.354166,131.833667 404.240234,133.143875 404.240234,134.087891 C404.240234,135.09701 404.346028,135.829425 404.557617,136.285156 C404.769207,136.740888 405.15169,136.96875 405.705078,136.96875 C406.193362,136.96875 406.657224,136.936198 407.09668,136.871094 C407.536135,136.805989 407.983722,136.708334 408.439453,136.578125 C408.895185,136.447916 409.375323,136.285157 409.879883,136.089844 C410.384443,135.89453 410.978512,135.650392 411.662109,135.357422 L412.589844,138.628906 Z M413.712891,82.3789063 C413.712891,83.2903691 413.525718,84.2343701 413.151367,85.2109375 C412.777016,86.1875049 412.223636,87.0826782 411.491211,87.8964844 C410.758785,88.7102905 409.863612,89.3857395 408.805664,89.9228516 C407.747716,90.4599636 406.518887,90.7285156 405.119141,90.7285156 C403.393872,90.7285156 402.132491,90.3134807 401.334961,89.4833984 C400.537431,88.6533162 400.138672,87.6849014 400.138672,86.578125 C400.138672,85.6992144 400.325844,84.7714893 400.700195,83.7949219 C401.074546,82.8183545 401.627926,81.9150432 402.360352,81.0849609 C403.092777,80.2548787 403.98795,79.5631538 405.045898,79.0097656 C406.103846,78.4563774 407.316399,78.1796875 408.683594,78.1796875 C410.408863,78.1796875 411.678381,78.6028604 412.492188,79.4492188 C413.305994,80.2955771 413.712891,81.2721299 413.712891,82.3789063 Z M458.292969,103.814453 C457.609372,104.49805 456.795578,105.271155 455.851562,106.133789 C454.907547,106.996424 453.947271,107.818355 452.970703,108.599609 C451.994136,109.380863 451.066411,110.031898 450.1875,110.552734 C449.308589,111.07357 448.608727,111.333984 448.087891,111.333984 C447.567055,111.333984 447.038089,111.016605 446.500977,110.381836 C445.963865,109.747067 445.377933,109.047204 444.743164,108.282227 C444.108395,107.517249 443.408532,106.817386 442.643555,106.182617 C441.878577,105.547848 441.024093,105.230469 440.080078,105.230469 C438.322257,105.230469 436.751635,105.832676 435.368164,107.037109 C433.984694,108.241542 432.829106,109.795889 431.901367,111.700195 C430.973628,113.604502 430.265627,115.736642 429.777344,118.09668 C429.28906,120.456718 429.044922,122.77603 429.044922,125.054688 C429.044922,127.170583 429.215819,129.050448 429.557617,130.694336 C429.899416,132.338224 430.387692,133.73795 431.022461,134.893555 C431.65723,136.049159 432.397782,136.928057 433.244141,137.530273 C434.090499,138.13249 435.0345,138.433594 436.076172,138.433594 C437.833993,138.433594 439.941719,137.790697 442.399414,136.504883 C444.857109,135.219069 447.843732,133.143895 451.359375,130.279297 C451.489584,130.442058 451.668619,130.694334 451.896484,131.036133 C452.12435,131.377931 452.368488,131.727863 452.628906,132.085938 C452.889324,132.444012 453.125324,132.777668 453.336914,133.086914 C453.548504,133.39616 453.686849,133.615885 453.751953,133.746094 C451.212878,136.057303 448.885427,138.002271 446.769531,139.581055 C444.653635,141.159839 442.692392,142.421219 440.885742,143.365234 C439.079093,144.30925 437.394539,144.984698 435.832031,145.391602 C434.269523,145.798505 432.755867,146.001953 431.291016,146.001953 C429.923821,146.001953 428.434578,145.725263 426.823242,145.171875 C425.211906,144.618487 423.714525,143.65821 422.331055,142.291016 C420.947584,140.923821 419.800135,139.100923 418.888672,136.822266 C417.977209,134.543608 417.521484,131.69533 417.521484,128.277344 C417.521484,126.096343 417.749347,123.882824 418.205078,121.636719 C418.66081,119.390614 419.401362,117.201508 420.426758,115.069336 C421.452154,112.937164 422.786776,110.894541 424.430664,108.941406 C426.074552,106.988271 428.100899,105.214201 430.509766,103.619141 C431.421229,103.0332 432.479161,102.422855 433.683594,101.788086 C434.888027,101.153317 436.173821,100.575523 437.541016,100.054688 C438.90821,99.5338516 440.307936,99.1106787 441.740234,98.7851562 C443.172533,98.4596338 444.572259,98.296875 445.939453,98.296875 C447.371752,98.296875 448.657546,98.5328752 449.796875,99.0048828 C450.936204,99.4768904 451.985998,100.022132 452.946289,100.640625 C453.90658,101.259118 454.81803,101.869463 455.680664,102.47168 C456.543299,103.073896 457.414058,103.521483 458.292969,103.814453 Z M504.533203,138.824219 C503.166009,139.800786 501.806973,140.720373 500.456055,141.583008 C499.105136,142.445642 497.843756,143.210609 496.671875,143.87793 C495.499994,144.545251 494.4502,145.066079 493.522461,145.44043 C492.594722,145.814781 491.837894,146.001953 491.251953,146.001953 C490.698565,146.001953 490.071944,145.822918 489.37207,145.464844 C488.672197,145.106769 488.004886,144.480148 487.370117,143.584961 C486.735348,142.689774 486.165693,141.493497 485.661133,139.996094 C485.156573,138.49869 484.822917,136.610688 484.660156,134.332031 C483.618484,135.76433 482.503587,137.180332 481.31543,138.580078 C480.127273,139.979825 478.890306,141.233067 477.604492,142.339844 C476.318678,143.44662 475.000332,144.333656 473.649414,145.000977 C472.298496,145.668298 470.972012,146.001953 469.669922,146.001953 C468.498041,146.001953 467.261074,145.692711 465.958984,145.074219 C464.656895,144.455726 463.460617,143.471035 462.370117,142.120117 C461.279617,140.769199 460.368168,139.02768 459.635742,136.895508 C458.903317,134.763336 458.537109,132.167333 458.537109,129.107422 C458.537109,126.535794 458.862627,124.021171 459.513672,121.563477 C460.164717,119.105782 461.108718,116.753917 462.345703,114.507812 C463.582688,112.261708 465.096345,110.153981 466.886719,108.18457 C468.677092,106.215159 470.727853,104.449227 473.039062,102.886719 C473.917973,102.300778 474.894526,101.731123 475.96875,101.177734 C477.042974,100.624346 478.182286,100.13607 479.386719,99.7128906 C480.591152,99.2897114 481.852532,98.947918 483.170898,98.6875 C484.489264,98.427082 485.832024,98.296875 487.199219,98.296875 C488.566413,98.296875 489.909173,98.6061167 491.227539,99.2246094 C492.545905,99.8431021 493.774734,100.510413 494.914062,101.226562 C496.020839,100.673174 497.127599,100.160484 498.234375,99.6884766 C499.341151,99.216469 500.33398,98.7526064 501.212891,98.296875 L502.726562,101.470703 C502.173174,101.926435 501.71745,102.333332 501.359375,102.691406 C501.0013,103.049481 500.683921,103.464516 500.407227,103.936523 C500.130532,104.408531 499.894532,104.986325 499.699219,105.669922 C499.503905,106.353519 499.292319,107.248692 499.064453,108.355469 C498.576169,110.69923 498.136721,112.969716 497.746094,115.166992 C497.355467,117.364269 497.021811,119.382478 496.745117,121.22168 C496.468423,123.060882 496.264975,124.680332 496.134766,126.080078 C496.004557,127.479825 495.939453,128.537757 495.939453,129.253906 C495.939453,131.500011 496.183591,133.347323 496.671875,134.795898 C497.160159,136.244473 497.778642,136.96875 498.527344,136.96875 C499.178389,136.96875 499.886389,136.879233 500.651367,136.700195 C501.416345,136.521158 502.449863,136.154951 503.751953,135.601562 L504.533203,138.824219 Z M485.148437,125.542969 C485.343751,124.175774 485.563475,122.710945 485.807617,121.148438 C486.051759,119.58593 486.295897,118.047859 486.540039,116.53418 C486.784181,115.0205 487.020181,113.571947 487.248047,112.188477 C487.475913,110.805006 487.687499,109.608729 487.882812,108.599609 C486.938797,107.720699 485.945969,106.939457 484.904297,106.255859 C483.862625,105.572262 482.837245,105.230469 481.828125,105.230469 C480.460931,105.263021 479.207688,105.604814 478.068359,106.255859 C476.929031,106.906904 475.911788,107.769526 475.016602,108.84375 C474.121415,109.917974 473.332035,111.146803 472.648437,112.530273 C471.96484,113.913744 471.403323,115.354159 470.963867,116.851562 C470.524412,118.348966 470.190756,119.838209 469.962891,121.319336 C469.735025,122.800463 469.621094,124.192051 469.621094,125.494141 C469.621094,127.317066 469.751301,128.912103 470.011719,130.279297 C470.272137,131.646491 470.622068,132.777665 471.061523,133.672852 C471.500979,134.568038 472.005531,135.243487 472.575195,135.699219 C473.14486,136.15495 473.738929,136.382812 474.357422,136.382812 C475.399094,136.382812 476.863923,135.455087 478.751953,133.599609 C480.639983,131.744131 482.772124,129.058611 485.148437,125.542969 Z M550.919922,101.470703 C549.813146,102.382166 548.942386,103.505202 548.307617,104.839844 C547.672848,106.174486 547.208986,108.01366 546.916016,110.357422 C546.460284,114.231139 546.134767,117.681625 545.939453,120.708984 C545.74414,123.736343 545.581381,126.560208 545.451172,129.180664 C545.320963,131.80112 545.158204,134.291329 544.962891,136.651367 C544.767577,139.011405 544.44206,141.444649 543.986328,143.951172 C543.595701,146.197277 542.920252,148.361969 541.959961,150.445312 C540.99967,152.528656 539.835944,154.481762 538.46875,156.304688 C537.101556,158.127613 535.596037,159.779615 533.952148,161.260742 C532.30826,162.741869 530.591155,164.011388 528.800781,165.069336 C527.010408,166.127284 525.195647,166.949216 523.356445,167.535156 C521.517243,168.121097 519.751311,168.414062 518.058594,168.414062 C516.430981,168.414062 514.770842,168.235028 513.078125,167.876953 C511.385408,167.518878 509.855476,167.063154 508.488281,166.509766 C507.121087,165.956377 506.006189,165.362308 505.143555,164.727539 C504.28092,164.09277 503.849609,163.482425 503.849609,162.896484 C503.849609,162.53841 503.996092,162.082685 504.289062,161.529297 C504.582033,160.975909 504.956378,160.398115 505.412109,159.795898 C505.867841,159.193682 506.364255,158.583336 506.901367,157.964844 C507.438479,157.346351 507.959307,156.801109 508.463867,156.329102 C508.968427,155.857094 509.416014,155.466473 509.806641,155.157227 C510.197268,154.84798 510.457682,154.693359 510.587891,154.693359 C510.978518,154.693359 511.450518,154.970049 512.003906,155.523438 C512.557294,156.076826 513.289709,156.695309 514.201172,157.378906 C515.112635,158.062503 516.243808,158.680987 517.594727,159.234375 C518.945645,159.787763 520.581371,160.064453 522.501953,160.064453 C523.706386,160.064453 524.821284,159.852867 525.84668,159.429688 C526.872075,159.006508 527.799801,158.274094 528.629883,157.232422 C529.459965,156.19075 530.200518,154.791024 530.851562,153.033203 C531.502607,151.275382 532.072263,149.045586 532.560547,146.34375 C533.016278,143.609361 533.333658,141.119152 533.512695,138.873047 C533.691733,136.626942 533.830078,134.429698 533.927734,132.28125 C532.625645,134.234385 531.29916,136.041007 529.948242,137.701172 C528.597324,139.361336 527.23015,140.80989 525.84668,142.046875 C524.463209,143.28386 523.071622,144.252275 521.671875,144.952148 C520.272128,145.652022 518.872403,146.001953 517.472656,146.001953 C516.398432,146.001953 515.210293,145.692711 513.908203,145.074219 C512.606113,144.455726 511.385422,143.471035 510.246094,142.120117 C509.106765,140.769199 508.154626,139.02768 507.389648,136.895508 C506.624671,134.763336 506.242188,132.167333 506.242188,129.107422 C506.242188,123.931615 507.471016,119.073265 509.928711,114.532227 C512.386406,109.991188 516.04034,106.109391 520.890625,102.886719 C522.713551,101.682286 524.837553,100.616216 527.262695,99.6884766 C529.687838,98.7607375 532.381496,98.296875 535.34375,98.296875 C536.580735,98.296875 537.882806,98.6468064 539.25,99.3466797 C540.617194,100.046553 541.919265,100.787105 543.15625,101.568359 C544.263026,100.85221 545.337234,100.233727 546.378906,99.7128906 L549.210938,98.296875 L550.919922,101.470703 Z M522.453125,136.382812 C522.843752,136.382812 523.397132,136.163088 524.113281,135.723633 C524.829431,135.284177 525.692052,134.543625 526.701172,133.501953 C527.710292,132.460281 528.857741,131.093107 530.143555,129.400391 C531.429368,127.707674 532.820956,125.608085 534.318359,123.101562 C534.448568,121.343741 534.611327,119.496429 534.806641,117.55957 C535.001954,115.622712 535.278644,113.498709 535.636719,111.1875 C535.734375,110.471351 535.929686,109.771488 536.222656,109.087891 C535.180984,108.111323 534.098638,107.224288 532.975586,106.426758 C531.852533,105.629228 530.770188,105.230469 529.728516,105.230469 C528.361321,105.230469 527.108079,105.555986 525.96875,106.207031 C524.829421,106.858076 523.804041,107.71256 522.892578,108.770508 C521.981115,109.828456 521.183597,111.057285 520.5,112.457031 C519.816403,113.856778 519.246747,115.305331 518.791016,116.802734 C518.335284,118.300138 517.993491,119.805656 517.765625,121.319336 C517.537759,122.833015 517.423828,124.224603 517.423828,125.494141 C517.423828,129.139992 517.903967,131.866202 518.864258,133.672852 C519.824549,135.479501 521.020826,136.382812 522.453125,136.382812 Z M594.279297,116.705078 C594.279297,118.886079 594.002607,121.09146 593.449219,123.321289 C592.895831,125.551118 592.098313,127.71581 591.056641,129.81543 C590.014969,131.91505 588.761726,133.916983 587.296875,135.821289 C585.832024,137.725595 584.18816,139.426425 582.365234,140.923828 C581.518876,141.607425 580.574875,142.25846 579.533203,142.876953 C578.491531,143.495446 577.417323,144.040688 576.310547,144.512695 C575.203771,144.984703 574.105149,145.35091 573.014648,145.611328 C571.924148,145.871746 570.89063,146.001953 569.914062,146.001953 C567.374987,146.001953 565.096364,145.521815 563.078125,144.561523 C561.059886,143.601232 559.350918,142.282886 557.951172,140.606445 C556.551425,138.930005 555.477217,136.944347 554.728516,134.649414 C553.979814,132.354481 553.605469,129.872409 553.605469,127.203125 C553.605469,124.859363 553.833331,122.597016 554.289062,120.416016 C554.744794,118.235015 555.460933,116.135427 556.4375,114.117188 C557.414067,112.098948 558.66731,110.153981 560.197266,108.282227 C561.727221,106.410472 563.582671,104.64454 565.763672,102.984375 C566.61003,102.33333 567.545893,101.722985 568.571289,101.15332 C569.596685,100.583656 570.662755,100.087242 571.769531,99.6640625 C572.876308,99.2408833 574.007481,98.9072278 575.163086,98.6630859 C576.318691,98.4189441 577.433588,98.296875 578.507812,98.296875 C581.046888,98.296875 583.301097,98.7525996 585.270508,99.6640625 C587.239919,100.575525 588.89192,101.845044 590.226562,103.472656 C591.561205,105.100269 592.570309,107.037098 593.253906,109.283203 C593.937503,111.529308 594.279297,114.003242 594.279297,116.705078 Z M582.902344,120.513672 C582.902344,118.039701 582.690757,115.842458 582.267578,113.921875 C581.844399,112.001292 581.282881,110.38998 580.583008,109.087891 C579.883135,107.785801 579.061203,106.792972 578.117188,106.109375 C577.173172,105.425778 576.180344,105.083984 575.138672,105.083984 C573.250642,105.083984 571.663743,105.65364 570.37793,106.792969 C569.092116,107.932297 568.05046,109.388989 567.25293,111.163086 C566.4554,112.937183 565.885744,114.906565 565.543945,117.071289 C565.202147,119.236013 565.03125,121.360016 565.03125,123.443359 C565.03125,125.62436 565.26725,127.675121 565.739258,129.595703 C566.211265,131.516286 566.829749,133.200839 567.594727,134.649414 C568.359704,136.097989 569.230464,137.245438 570.207031,138.091797 C571.183599,138.938155 572.192703,139.361328 573.234375,139.361328 C574.438808,139.361328 575.513016,139.084638 576.457031,138.53125 C577.401046,137.977862 578.231116,137.221033 578.947266,136.260742 C579.663415,135.300451 580.27376,134.193691 580.77832,132.94043 C581.28288,131.687168 581.689777,130.360684 581.999023,128.960938 C582.30827,127.561191 582.536132,126.137052 582.682617,124.688477 C582.829102,123.239902 582.902344,121.848314 582.902344,120.513672 Z M362.736328,169.041016 C361.922522,169.041016 360.970383,169.154947 359.879883,169.382812 C358.789383,169.610678 357.658209,169.952472 356.486328,170.408203 L356.974609,220.457031 C356.974609,220.847658 357.568679,221.327797 358.756836,221.897461 C359.944993,222.467125 361.710926,222.979815 364.054688,223.435547 L364.054688,227 L338.566406,227 L338.566406,223.435547 C340.779959,222.979815 342.529616,222.483401 343.81543,221.946289 C345.101243,221.409177 345.744141,220.912763 345.744141,220.457031 L345.353516,180.759766 L324.650391,227 L320.060547,227 L299.748047,180.857422 L299.357422,220.457031 C299.357422,220.847658 299.894526,221.327797 300.96875,221.897461 C302.042974,222.467125 303.751941,222.979815 306.095703,223.435547 L306.095703,227 L285.587891,227 L285.587891,223.435547 C287.833996,222.979815 289.510411,222.483401 290.617188,221.946289 C291.723964,221.409177 292.277344,220.912763 292.277344,220.457031 L292.765625,170.75 C291.626296,170.098955 290.462571,169.651368 289.274414,169.407227 C288.086257,169.163085 287.020187,169.041016 286.076172,169.041016 L286.076172,165.476562 L302.970703,165.476562 C303.296226,165.476562 303.589191,165.52539 303.849609,165.623047 C304.110027,165.720704 304.362303,165.916014 304.606445,166.208984 C304.850587,166.501955 305.119139,166.91699 305.412109,167.454102 C305.70508,167.991214 306.046873,168.699214 306.4375,169.578125 L324.40625,210.349609 L342.716797,169.578125 C343.139976,168.601558 343.498045,167.844729 343.791016,167.307617 C344.083986,166.770505 344.360676,166.363608 344.621094,166.086914 C344.881512,165.81022 345.133788,165.639323 345.37793,165.574219 C345.622072,165.509114 345.890624,165.476562 346.183594,165.476562 L362.736328,165.476562 L362.736328,169.041016 Z M412.882812,200.144531 C412.589842,200.470054 412.166669,200.828123 411.613281,201.21875 C411.059893,201.609377 410.457686,201.983722 409.806641,202.341797 C409.155596,202.699872 408.496423,203.041665 407.829102,203.367188 C407.161781,203.69271 406.567711,203.953124 406.046875,204.148438 L382.951172,204.148438 C383.016276,206.492199 383.333656,208.648753 383.90332,210.618164 C384.472985,212.587575 385.278641,214.288404 386.320312,215.720703 C387.361984,217.153002 388.623365,218.2679 390.104492,219.06543 C391.585619,219.86296 393.286449,220.261719 395.207031,220.261719 C396.216151,220.261719 397.200842,220.204753 398.161133,220.09082 C399.121424,219.976887 400.16308,219.708335 401.286133,219.285156 C402.409185,218.861977 403.670566,218.267907 405.070312,217.50293 C406.470059,216.737952 408.130199,215.688158 410.050781,214.353516 C410.246095,214.451172 410.482095,214.646483 410.758789,214.939453 C411.035483,215.232423 411.295897,215.549803 411.540039,215.891602 C411.784181,216.2334 412.003905,216.55078 412.199219,216.84375 C412.394532,217.13672 412.524739,217.348307 412.589844,217.478516 C410.343739,219.757173 408.32553,221.612623 406.535156,223.044922 C404.744783,224.477221 403.027677,225.592118 401.383789,226.389648 C399.739901,227.187178 398.104175,227.73242 396.476562,228.025391 C394.84895,228.318361 393.058604,228.464844 391.105469,228.464844 C388.338528,228.464844 385.726249,227.911464 383.268555,226.804688 C380.81086,225.697911 378.662444,224.135427 376.823242,222.117188 C374.98404,220.098948 373.527349,217.673842 372.453125,214.841797 C371.378901,212.009751 370.841797,208.868507 370.841797,205.417969 C370.841797,200.990863 371.680005,197.043963 373.356445,193.577148 C375.032886,190.110334 377.547509,187.156262 380.900391,184.714844 C381.746749,184.096351 382.698888,183.502281 383.756836,182.932617 C384.814784,182.362953 385.921544,181.874677 387.077148,181.467773 C388.232753,181.06087 389.42903,180.735353 390.666016,180.491211 C391.903001,180.247069 393.139968,180.125 394.376953,180.125 C397.567073,180.125 400.325835,180.67838 402.65332,181.785156 C404.980806,182.891933 406.90136,184.3649 408.415039,186.204102 C409.928719,188.043303 411.051754,190.167306 411.78418,192.576172 C412.516605,194.985038 412.882812,197.507799 412.882812,200.144531 Z M392.619141,185.984375 C391.089185,185.984375 389.770839,186.277341 388.664062,186.863281 C387.557286,187.449222 386.621423,188.295567 385.856445,189.402344 C385.091468,190.50912 384.48926,191.843742 384.049805,193.40625 C383.610349,194.968758 383.29297,196.726553 383.097656,198.679688 L399.357422,198.679688 C400.106124,198.679688 400.602538,198.557618 400.84668,198.313477 C401.090822,198.069335 401.212891,197.605472 401.212891,196.921875 C401.212891,195.945308 401.082684,194.83041 400.822266,193.577148 C400.561848,192.323887 400.097985,191.135748 399.430664,190.012695 C398.763343,188.889643 397.876308,187.937504 396.769531,187.15625 C395.662755,186.374996 394.279305,185.984375 392.619141,185.984375 Z M459.904297,195.701172 C459.904297,198.207695 459.350917,200.494456 458.244141,202.561523 C457.137364,204.628591 455.656259,206.402662 453.800781,207.883789 C451.945303,209.364916 449.796887,210.520504 447.355469,211.350586 C444.91405,212.180668 442.342461,212.595703 439.640625,212.595703 L439.152344,212.595703 C437.915358,213.735032 437.125978,214.654619 436.78418,215.354492 C436.442381,216.054365 436.271484,216.501952 436.271484,216.697266 C436.271484,216.990236 436.36914,217.275064 436.564453,217.551758 C436.759767,217.828452 437.223629,218.105142 437.956055,218.381836 C438.68848,218.65853 439.79524,218.943358 441.276367,219.236328 C442.757494,219.529298 444.767565,219.83854 447.306641,220.164062 C451.115253,220.652346 454.272774,221.246416 456.779297,221.946289 C459.28582,222.646162 461.279615,223.48437 462.760742,224.460938 C464.241869,225.437505 465.275388,226.560541 465.861328,227.830078 C466.447269,229.099616 466.740234,230.531893 466.740234,232.126953 C466.740234,233.656909 466.390303,235.186841 465.69043,236.716797 C464.990556,238.246752 464.022142,239.719719 462.785156,241.135742 C461.548171,242.551765 460.099618,243.861973 458.439453,245.066406 C456.779289,246.270839 454.980804,247.320634 453.043945,248.21582 C451.107087,249.111007 449.088878,249.81087 446.989258,250.31543 C444.889638,250.81999 442.798188,251.072266 440.714844,251.072266 C439.022127,251.072266 437.256194,250.966472 435.416992,250.754883 C433.57779,250.543293 431.771168,250.209638 429.99707,249.753906 C428.222973,249.298175 426.538419,248.720381 424.943359,248.020508 C423.348299,247.320635 421.948574,246.474289 420.744141,245.481445 C419.539708,244.488602 418.579431,243.357428 417.863281,242.087891 C417.147132,240.818353 416.789062,239.402352 416.789062,237.839844 C416.789062,237.026038 416.959959,236.195968 417.301758,235.349609 C417.643556,234.503251 418.270178,233.59994 419.181641,232.639648 C420.093104,231.679357 421.338208,230.637701 422.916992,229.514648 C424.495776,228.391596 426.538399,227.146491 429.044922,225.779297 C425.333966,224.281894 423.478516,222.686857 423.478516,220.994141 C423.478516,220.636066 423.633136,220.155927 423.942383,219.553711 C424.251629,218.951494 424.756181,218.251632 425.456055,217.454102 C426.155928,216.656572 427.075515,215.769536 428.214844,214.792969 C429.354172,213.816401 430.737622,212.774745 432.365234,211.667969 C430.542309,211.179685 428.882169,210.496098 427.384766,209.617188 C425.887362,208.738277 424.609706,207.696621 423.551758,206.492188 C422.49381,205.287754 421.671878,203.936856 421.085938,202.439453 C420.499997,200.94205 420.207031,199.330738 420.207031,197.605469 C420.207031,195.229155 420.792963,192.974946 421.964844,190.842773 C423.136725,188.710601 424.699209,186.855151 426.652344,185.276367 C428.605479,183.697583 430.875964,182.444341 433.463867,181.516602 C436.051771,180.588863 438.761705,180.125 441.59375,180.125 C443.839855,180.125 445.939443,180.434242 447.892578,181.052734 C449.845713,181.671227 451.603508,182.501297 453.166016,183.542969 C455.998061,183.184894 458.561512,182.64779 460.856445,181.931641 C463.151379,181.215491 464.966139,180.613284 466.300781,180.125 L467.667969,181.931641 C467.570312,182.289715 467.415691,182.712888 467.204102,183.201172 C466.992512,183.689456 466.76465,184.18587 466.520508,184.69043 C466.276366,185.19499 466.015952,185.699542 465.739258,186.204102 C465.462564,186.708661 465.177736,187.156248 464.884766,187.546875 C463.777989,187.742188 462.654954,187.904947 461.515625,188.035156 C460.376296,188.165365 459.123054,188.263021 457.755859,188.328125 C458.439457,189.467454 458.968423,190.647455 459.342773,191.868164 C459.717124,193.088873 459.904297,194.36653 459.904297,195.701172 Z M448.673828,197.703125 C448.673828,196.04296 448.454104,194.488614 448.014648,193.040039 C447.575193,191.591464 446.932296,190.330083 446.085938,189.255859 C445.239579,188.181635 444.189785,187.327152 442.936523,186.692383 C441.683262,186.057614 440.226571,185.740234 438.566406,185.740234 C437.7526,185.740234 436.92253,185.927407 436.076172,186.301758 C435.229813,186.676109 434.464847,187.237626 433.78125,187.986328 C433.097653,188.73503 432.536135,189.679031 432.09668,190.818359 C431.657224,191.957688 431.4375,193.29231 431.4375,194.822266 C431.4375,196.449878 431.632811,197.987948 432.023438,199.436523 C432.414064,200.885098 433.02441,202.146479 433.854492,203.220703 C434.684574,204.294927 435.734369,205.149411 437.003906,205.78418 C438.273444,206.418948 439.787101,206.736328 441.544922,206.736328 C442.488937,206.736328 443.392248,206.549156 444.254883,206.174805 C445.117517,205.800454 445.874346,205.238936 446.525391,204.490234 C447.176436,203.741533 447.697264,202.80567 448.087891,201.682617 C448.478518,200.559565 448.673828,199.233081 448.673828,197.703125 Z M443.205078,229.050781 C441.64257,228.855468 440.177741,228.627605 438.810547,228.367188 C437.443353,228.10677 436.157558,227.846355 434.953125,227.585938 C433.455722,228.627609 432.27572,229.555334 431.413086,230.369141 C430.550451,231.182947 429.907554,231.923499 429.484375,232.59082 C429.061196,233.258141 428.792644,233.860349 428.678711,234.397461 C428.564778,234.934573 428.507812,235.447263 428.507812,235.935547 C428.507812,237.009771 428.906572,238.043289 429.704102,239.036133 C430.501632,240.028976 431.600253,240.899736 433,241.648438 C434.399747,242.397139 436.051748,242.991209 437.956055,243.430664 C439.860361,243.870119 441.91926,244.089844 444.132812,244.089844 C446.053395,244.089844 447.713535,243.853844 449.113281,243.381836 C450.513028,242.909828 451.676753,242.266931 452.604492,241.453125 C453.532231,240.639319 454.223956,239.711594 454.679687,238.669922 C455.135419,237.62825 455.363281,236.537766 455.363281,235.398438 C455.363281,234.779945 455.216798,234.161461 454.923828,233.542969 C454.630858,232.924476 454.044926,232.338544 453.166016,231.785156 C452.287105,231.231768 451.050138,230.719078 449.455078,230.24707 C447.860018,229.775063 445.776706,229.376304 443.205078,229.050781 Z M517.375,221.53125 C516.007806,222.475265 514.583666,223.370438 513.102539,224.216797 C511.621412,225.063155 510.221686,225.803708 508.90332,226.438477 C507.584954,227.073245 506.380539,227.56966 505.290039,227.927734 C504.199539,228.285809 503.361331,228.464844 502.775391,228.464844 C501.570958,228.464844 500.553715,227.781257 499.723633,226.414062 C498.893551,225.046868 498.397136,223.14259 498.234375,220.701172 C496.769524,222.166023 495.296557,223.394852 493.81543,224.387695 C492.334302,225.380539 490.902025,226.178057 489.518555,226.780273 C488.135084,227.38249 486.8086,227.813801 485.539062,228.074219 C484.269525,228.334637 483.113938,228.464844 482.072266,228.464844 C480.705071,228.464844 479.362311,228.228844 478.043945,227.756836 C476.725579,227.284828 475.53744,226.584966 474.479492,225.657227 C473.421544,224.729488 472.567061,223.557624 471.916016,222.141602 C471.264971,220.725579 470.939453,219.073577 470.939453,217.185547 C470.939453,214.971994 471.338212,213.09213 472.135742,211.545898 C472.933272,209.999667 473.934239,208.624355 475.138672,207.419922 C475.919926,206.638668 476.823237,205.88184 477.848633,205.149414 C478.874029,204.416989 480.241202,203.708988 481.950195,203.025391 C483.659188,202.341793 485.807604,201.68262 488.395508,201.047852 C490.983411,200.413083 494.246725,199.802737 498.185547,199.216797 L498.185547,193.455078 C498.185547,192.445958 498.087892,191.510095 497.892578,190.647461 C497.697265,189.784826 497.355471,189.044274 496.867188,188.425781 C496.378904,187.807289 495.727869,187.32715 494.914062,186.985352 C494.100256,186.643553 493.074876,186.472656 491.837891,186.472656 C491.056637,186.472656 490.275395,186.619139 489.494141,186.912109 C488.712887,187.20508 488.0293,187.620115 487.443359,188.157227 C486.857419,188.694339 486.393556,189.345374 486.051758,190.110352 C485.709959,190.875329 485.58789,191.746089 485.685547,192.722656 C485.718099,192.91797 485.457685,193.162108 484.904297,193.455078 C484.350909,193.748048 483.651046,194.049152 482.804688,194.358398 C481.958329,194.667645 481.022466,194.976886 479.99707,195.286133 C478.971675,195.595379 477.986984,195.855793 477.042969,196.067383 C476.098954,196.278972 475.252608,196.441731 474.503906,196.555664 C473.755205,196.669597 473.250652,196.694011 472.990234,196.628906 L471.964844,193.992188 C472.746098,192.039053 473.974927,190.224292 475.651367,188.547852 C477.327808,186.871411 479.289051,185.406582 481.535156,184.15332 C483.781261,182.900059 486.230781,181.915368 488.883789,181.199219 C491.536797,180.483069 494.214179,180.125 496.916016,180.125 C499.162121,180.125 501.09895,180.417966 502.726562,181.003906 C504.354175,181.589847 505.696935,182.411779 506.754883,183.469727 C507.812831,184.527675 508.602211,185.772779 509.123047,187.205078 C509.643883,188.637377 509.904297,190.183585 509.904297,191.84375 L509.904297,215.378906 C509.904297,216.746101 510.083332,217.722653 510.441406,218.308594 C510.799481,218.894534 511.271481,219.1875 511.857422,219.1875 C512.085288,219.1875 512.321288,219.171224 512.56543,219.138672 C512.809572,219.10612 513.102537,219.041016 513.444336,218.943359 C513.786135,218.845703 514.184894,218.707358 514.640625,218.52832 C515.096356,218.349283 515.649736,218.129559 516.300781,217.869141 L517.375,221.53125 Z M487.882812,219.919922 C488.501305,219.919922 489.15234,219.84668 489.835938,219.700195 C490.519535,219.55371 491.276363,219.293296 492.106445,218.918945 C492.936528,218.544594 493.847977,218.023766 494.84082,217.356445 C495.833664,216.689124 496.948562,215.834641 498.185547,214.792969 L498.185547,204.001953 C496.232412,204.327476 494.588548,204.644855 493.253906,204.954102 C491.919264,205.263348 490.796229,205.580728 489.884766,205.90625 C488.973303,206.231772 488.23275,206.573566 487.663086,206.931641 C487.093422,207.289715 486.597007,207.680336 486.173828,208.103516 C485.32747,208.949874 484.643883,209.861323 484.123047,210.837891 C483.602211,211.814458 483.341797,212.986321 483.341797,214.353516 C483.341797,215.460292 483.496418,216.371741 483.805664,217.087891 C484.11491,217.80404 484.505531,218.373696 484.977539,218.796875 C485.449547,219.220054 485.945961,219.51302 486.466797,219.675781 C486.987633,219.838542 487.459633,219.919922 487.882812,219.919922 Z M571.183594,168.992188 C571.346355,169.122396 571.362631,169.4235 571.232422,169.895508 C571.102213,170.367515 570.882489,170.929033 570.573242,171.580078 C570.263996,172.231123 569.889651,172.947262 569.450195,173.728516 C569.01074,174.50977 568.571291,175.25846 568.131836,175.974609 C567.692381,176.690759 567.26107,177.325518 566.837891,177.878906 C566.414711,178.432294 566.056642,178.839191 565.763672,179.099609 L562.6875,178.416016 C561.613276,176.853508 560.53093,175.535162 559.44043,174.460938 C558.349929,173.386713 557.218756,172.53223 556.046875,171.897461 C554.874994,171.262692 553.654303,170.806968 552.384766,170.530273 C551.115228,170.253579 549.780606,170.115234 548.380859,170.115234 C547.567053,170.115234 546.614914,170.277993 545.524414,170.603516 C544.433914,170.929038 543.310878,171.482418 542.155273,172.263672 C540.999669,173.044926 539.860357,174.086582 538.737305,175.388672 C537.614252,176.690762 536.613286,178.293936 535.734375,180.198242 C534.855464,182.102549 534.139326,184.34862 533.585938,186.936523 C533.032549,189.524427 532.755859,192.511051 532.755859,195.896484 C532.755859,200.258485 533.260412,204.001938 534.269531,207.126953 C535.278651,210.251969 536.621411,212.823558 538.297852,214.841797 C539.974292,216.860036 541.886708,218.349279 544.035156,219.30957 C546.183604,220.269862 548.4134,220.75 550.724609,220.75 C552.514983,220.75 554.118157,220.587241 555.53418,220.261719 C556.950202,219.936196 558.227859,219.496748 559.367188,218.943359 L559.367188,204.050781 C559.367188,203.692707 559.302084,203.342775 559.171875,203.000977 C559.041666,202.659178 558.716148,202.325522 558.195312,202 C557.674477,201.674478 556.885096,201.34896 555.827148,201.023438 C554.7692,200.697915 553.328785,200.372397 551.505859,200.046875 L551.505859,196.482422 L575.822266,196.482422 L575.822266,200.046875 C573.966788,200.502606 572.713545,201.096676 572.0625,201.829102 C571.411455,202.561527 571.085938,203.30208 571.085938,204.050781 L571.085938,218.748047 C568.677071,220.733734 566.422862,222.353184 564.323242,223.606445 C562.223622,224.859707 560.262379,225.844397 558.439453,226.560547 C556.616527,227.276696 554.891284,227.773111 553.263672,228.049805 C551.63606,228.326499 550.089851,228.464844 548.625,228.464844 C546.248686,228.464844 543.904959,228.196292 541.59375,227.65918 C539.282541,227.122068 537.085297,226.308274 535.001953,225.217773 C532.918609,224.127273 530.98178,222.751961 529.191406,221.091797 C527.401033,219.431632 525.854824,217.494803 524.552734,215.28125 C523.250645,213.067697 522.233402,210.56935 521.500977,207.786133 C520.768551,205.002916 520.402344,201.934913 520.402344,198.582031 C520.402344,193.178358 521.264965,188.336284 522.990234,184.055664 C524.715503,179.775044 527.108058,176.145523 530.167969,173.166992 C533.22788,170.188462 536.824849,167.917977 540.958984,166.355469 C545.09312,164.792961 549.585262,164.011719 554.435547,164.011719 C555.509771,164.011719 556.787427,164.12565 558.268555,164.353516 C559.749682,164.581381 561.271477,164.906899 562.833984,165.330078 C564.396492,165.753257 565.918287,166.274085 567.399414,166.892578 C568.880541,167.511071 570.141922,168.210934 571.183594,168.992188 Z M627.482422,221.53125 C626.115228,222.475265 624.691088,223.370438 623.209961,224.216797 C621.728834,225.063155 620.329108,225.803708 619.010742,226.438477 C617.692376,227.073245 616.487961,227.56966 615.397461,227.927734 C614.306961,228.285809 613.468753,228.464844 612.882812,228.464844 C611.678379,228.464844 610.661137,227.781257 609.831055,226.414062 C609.000972,225.046868 608.504558,223.14259 608.341797,220.701172 C606.876946,222.166023 605.403979,223.394852 603.922852,224.387695 C602.441724,225.380539 601.009447,226.178057 599.625977,226.780273 C598.242506,227.38249 596.916022,227.813801 595.646484,228.074219 C594.376947,228.334637 593.221359,228.464844 592.179688,228.464844 C590.812493,228.464844 589.469733,228.228844 588.151367,227.756836 C586.833001,227.284828 585.644862,226.584966 584.586914,225.657227 C583.528966,224.729488 582.674482,223.557624 582.023438,222.141602 C581.372393,220.725579 581.046875,219.073577 581.046875,217.185547 C581.046875,214.971994 581.445634,213.09213 582.243164,211.545898 C583.040694,209.999667 584.041661,208.624355 585.246094,207.419922 C586.027348,206.638668 586.930659,205.88184 587.956055,205.149414 C588.98145,204.416989 590.348624,203.708988 592.057617,203.025391 C593.76661,202.341793 595.915026,201.68262 598.50293,201.047852 C601.090833,200.413083 604.354147,199.802737 608.292969,199.216797 L608.292969,193.455078 C608.292969,192.445958 608.195313,191.510095 608,190.647461 C607.804687,189.784826 607.462893,189.044274 606.974609,188.425781 C606.486326,187.807289 605.835291,187.32715 605.021484,186.985352 C604.207678,186.643553 603.182298,186.472656 601.945312,186.472656 C601.164059,186.472656 600.382816,186.619139 599.601562,186.912109 C598.820309,187.20508 598.136722,187.620115 597.550781,188.157227 C596.964841,188.694339 596.500978,189.345374 596.15918,190.110352 C595.817381,190.875329 595.695312,191.746089 595.792969,192.722656 C595.825521,192.91797 595.565107,193.162108 595.011719,193.455078 C594.458331,193.748048 593.758468,194.049152 592.912109,194.358398 C592.065751,194.667645 591.129888,194.976886 590.104492,195.286133 C589.079096,195.595379 588.094406,195.855793 587.150391,196.067383 C586.206375,196.278972 585.36003,196.441731 584.611328,196.555664 C583.862626,196.669597 583.358074,196.694011 583.097656,196.628906 L582.072266,193.992188 C582.85352,192.039053 584.082348,190.224292 585.758789,188.547852 C587.43523,186.871411 589.396473,185.406582 591.642578,184.15332 C593.888683,182.900059 596.338203,181.915368 598.991211,181.199219 C601.644219,180.483069 604.321601,180.125 607.023438,180.125 C609.269542,180.125 611.206372,180.417966 612.833984,181.003906 C614.461597,181.589847 615.804357,182.411779 616.862305,183.469727 C617.920253,184.527675 618.709633,185.772779 619.230469,187.205078 C619.751305,188.637377 620.011719,190.183585 620.011719,191.84375 L620.011719,215.378906 C620.011719,216.746101 620.190753,217.722653 620.548828,218.308594 C620.906903,218.894534 621.378903,219.1875 621.964844,219.1875 C622.192709,219.1875 622.42871,219.171224 622.672852,219.138672 C622.916993,219.10612 623.209959,219.041016 623.551758,218.943359 C623.893556,218.845703 624.292315,218.707358 624.748047,218.52832 C625.203778,218.349283 625.757158,218.129559 626.408203,217.869141 L627.482422,221.53125 Z M597.990234,219.919922 C598.608727,219.919922 599.259762,219.84668 599.943359,219.700195 C600.626957,219.55371 601.383785,219.293296 602.213867,218.918945 C603.043949,218.544594 603.955399,218.023766 604.948242,217.356445 C605.941086,216.689124 607.055983,215.834641 608.292969,214.792969 L608.292969,204.001953 C606.339834,204.327476 604.69597,204.644855 603.361328,204.954102 C602.026686,205.263348 600.90365,205.580728 599.992188,205.90625 C599.080725,206.231772 598.340172,206.573566 597.770508,206.931641 C597.200844,207.289715 596.704429,207.680336 596.28125,208.103516 C595.434892,208.949874 594.751305,209.861323 594.230469,210.837891 C593.709633,211.814458 593.449219,212.986321 593.449219,214.353516 C593.449219,215.460292 593.60384,216.371741 593.913086,217.087891 C594.222332,217.80404 594.612953,218.373696 595.084961,218.796875 C595.556969,219.220054 596.053383,219.51302 596.574219,219.675781 C597.095055,219.838542 597.567055,219.919922 597.990234,219.919922 Z M686.857422,227 L686.857422,223.435547 C688.029303,223.142577 688.981442,222.857749 689.713867,222.581055 C690.446293,222.304361 691.024086,222.043947 691.447266,221.799805 C691.870445,221.555663 692.155273,221.327801 692.301758,221.116211 C692.448243,220.904621 692.521484,220.684897 692.521484,220.457031 L692.521484,197.556641 C692.521484,195.570954 692.415691,193.975917 692.204102,192.771484 C691.992512,191.567051 691.68327,190.655602 691.276367,190.037109 C690.869464,189.418617 690.340498,189.01172 689.689453,188.816406 C689.038408,188.621093 688.273442,188.523438 687.394531,188.523438 C685.962232,188.523438 684.285817,189.02799 682.365234,190.037109 C680.444652,191.046229 678.426443,192.576162 676.310547,194.626953 L676.310547,220.457031 C676.310547,220.684897 676.391926,220.904621 676.554688,221.116211 C676.717449,221.327801 677.018552,221.547525 677.458008,221.775391 C677.897463,222.003256 678.524084,222.255532 679.337891,222.532227 C680.151697,222.808921 681.193353,223.110024 682.462891,223.435547 L682.462891,227 L658.878906,227 L658.878906,223.435547 C660.050787,223.142577 661.011064,222.857749 661.759766,222.581055 C662.508467,222.304361 663.086261,222.043947 663.493164,221.799805 C663.900067,221.555663 664.184895,221.327801 664.347656,221.116211 C664.510417,220.904621 664.591797,220.684897 664.591797,220.457031 L664.591797,197.556641 C664.591797,195.570954 664.510417,193.975917 664.347656,192.771484 C664.184895,191.567051 663.916343,190.655602 663.541992,190.037109 C663.167641,189.418617 662.679365,189.01172 662.077148,188.816406 C661.474932,188.621093 660.718104,188.523438 659.806641,188.523438 C658.34179,188.523438 656.665374,189.011714 654.777344,189.988281 C652.889313,190.964849 650.740897,192.511057 648.332031,194.626953 L648.332031,220.457031 C648.332031,220.945315 648.820308,221.449867 649.796875,221.970703 C650.773442,222.491539 652.319651,222.979815 654.435547,223.435547 L654.435547,227 L630.167969,227 L630.167969,223.435547 C632.316417,222.882159 633.927729,222.385744 635.001953,221.946289 C636.076177,221.506834 636.613281,221.010419 636.613281,220.457031 L636.613281,193.357422 C636.613281,192.055332 636.572592,191.029952 636.491211,190.28125 C636.40983,189.532548 636.165692,188.954755 635.758789,188.547852 C635.351886,188.140948 634.708989,187.839845 633.830078,187.644531 C632.951167,187.449218 631.730477,187.253907 630.167969,187.058594 L630.167969,183.640625 C631.860686,183.445312 633.390618,183.233725 634.757812,183.005859 C636.125007,182.777994 637.418939,182.51758 638.639648,182.224609 C639.860358,181.931639 641.024083,181.61426 642.130859,181.272461 C643.237636,180.930662 644.376947,180.548179 645.548828,180.125 L647.599609,182.175781 L648.136719,188.230469 C649.959645,186.635409 651.644198,185.308925 653.19043,184.250977 C654.736661,183.193029 656.193353,182.362959 657.560547,181.760742 C658.927741,181.158526 660.229812,180.735353 661.466797,180.491211 C662.703782,180.247069 663.908197,180.125 665.080078,180.125 C666.642586,180.125 668.026036,180.320311 669.230469,180.710938 C670.434902,181.101564 671.460282,181.630531 672.306641,182.297852 C673.152999,182.965173 673.836586,183.746415 674.357422,184.641602 C674.878258,185.536788 675.236327,186.505203 675.431641,187.546875 L675.578125,188.230469 C677.401051,186.635409 679.093742,185.317063 680.65625,184.275391 C682.218758,183.233719 683.691725,182.403649 685.075195,181.785156 C686.458666,181.166664 687.768874,180.735353 689.005859,180.491211 C690.242845,180.247069 691.463536,180.125 692.667969,180.125 C694.230477,180.125 695.711582,180.344724 697.111328,180.78418 C698.511075,181.223635 699.739904,181.939774 700.797852,182.932617 C701.8558,183.925461 702.694007,185.219393 703.3125,186.814453 C703.930993,188.409513 704.240234,190.346343 704.240234,192.625 L704.240234,220.457031 C704.240234,220.912763 704.744787,221.360349 705.753906,221.799805 C706.763026,222.23926 708.553373,222.784502 711.125,223.435547 L711.125,227 L686.857422,227 Z M757.414062,200.144531 C757.121092,200.470054 756.697919,200.828123 756.144531,201.21875 C755.591143,201.609377 754.988936,201.983722 754.337891,202.341797 C753.686846,202.699872 753.027673,203.041665 752.360352,203.367188 C751.693031,203.69271 751.098961,203.953124 750.578125,204.148438 L727.482422,204.148438 C727.547526,206.492199 727.864906,208.648753 728.43457,210.618164 C729.004235,212.587575 729.809891,214.288404 730.851562,215.720703 C731.893234,217.153002 733.154615,218.2679 734.635742,219.06543 C736.116869,219.86296 737.817699,220.261719 739.738281,220.261719 C740.747401,220.261719 741.732092,220.204753 742.692383,220.09082 C743.652674,219.976887 744.69433,219.708335 745.817383,219.285156 C746.940435,218.861977 748.201816,218.267907 749.601562,217.50293 C751.001309,216.737952 752.661449,215.688158 754.582031,214.353516 C754.777345,214.451172 755.013345,214.646483 755.290039,214.939453 C755.566733,215.232423 755.827147,215.549803 756.071289,215.891602 C756.315431,216.2334 756.535155,216.55078 756.730469,216.84375 C756.925782,217.13672 757.055989,217.348307 757.121094,217.478516 C754.874989,219.757173 752.85678,221.612623 751.066406,223.044922 C749.276033,224.477221 747.558927,225.592118 745.915039,226.389648 C744.271151,227.187178 742.635425,227.73242 741.007812,228.025391 C739.3802,228.318361 737.589854,228.464844 735.636719,228.464844 C732.869778,228.464844 730.257499,227.911464 727.799805,226.804688 C725.34211,225.697911 723.193694,224.135427 721.354492,222.117188 C719.51529,220.098948 718.058599,217.673842 716.984375,214.841797 C715.910151,212.009751 715.373047,208.868507 715.373047,205.417969 C715.373047,200.990863 716.211255,197.043963 717.887695,193.577148 C719.564136,190.110334 722.078759,187.156262 725.431641,184.714844 C726.277999,184.096351 727.230138,183.502281 728.288086,182.932617 C729.346034,182.362953 730.452794,181.874677 731.608398,181.467773 C732.764003,181.06087 733.96028,180.735353 735.197266,180.491211 C736.434251,180.247069 737.671218,180.125 738.908203,180.125 C742.098323,180.125 744.857085,180.67838 747.18457,181.785156 C749.512056,182.891933 751.43261,184.3649 752.946289,186.204102 C754.459969,188.043303 755.583004,190.167306 756.31543,192.576172 C757.047855,194.985038 757.414062,197.507799 757.414062,200.144531 Z M737.150391,185.984375 C735.620435,185.984375 734.302089,186.277341 733.195312,186.863281 C732.088536,187.449222 731.152673,188.295567 730.387695,189.402344 C729.622718,190.50912 729.02051,191.843742 728.581055,193.40625 C728.141599,194.968758 727.82422,196.726553 727.628906,198.679688 L743.888672,198.679688 C744.637374,198.679688 745.133788,198.557618 745.37793,198.313477 C745.622072,198.069335 745.744141,197.605472 745.744141,196.921875 C745.744141,195.945308 745.613934,194.83041 745.353516,193.577148 C745.093098,192.323887 744.629235,191.135748 743.961914,190.012695 C743.294593,188.889643 742.407558,187.937504 741.300781,187.15625 C740.194005,186.374996 738.810555,185.984375 737.150391,185.984375 Z M798.771484,213.181641 C798.771484,215.49285 798.421553,217.470369 797.72168,219.114258 C797.021806,220.758146 796.110357,222.149734 794.987305,223.289062 C793.864252,224.428391 792.602872,225.33984 791.203125,226.023438 C789.803378,226.707035 788.379239,227.227863 786.930664,227.585938 C785.482089,227.944012 784.098639,228.180012 782.780273,228.293945 C781.461907,228.407878 780.330734,228.464844 779.386719,228.464844 C778.345047,228.464844 777.213873,228.391602 775.993164,228.245117 C774.772455,228.098632 773.52735,227.878908 772.257812,227.585938 C770.988275,227.292967 769.726894,226.918622 768.473633,226.462891 C767.220371,226.007159 766.056646,225.486331 764.982422,224.900391 C764.754556,224.802734 764.583659,224.22494 764.469727,223.166992 C764.355794,222.109044 764.315104,220.847664 764.347656,219.382812 C764.380208,217.917961 764.469726,216.388029 764.616211,214.792969 C764.762696,213.197909 764.998696,211.798183 765.324219,210.59375 L769.279297,211.130859 C769.604819,212.856128 770.141923,214.418613 770.890625,215.818359 C771.639327,217.218106 772.5345,218.406245 773.576172,219.382812 C774.617844,220.35938 775.781569,221.116208 777.067383,221.65332 C778.353197,222.190432 779.695957,222.458984 781.095703,222.458984 C783.439465,222.458984 785.180984,222.035812 786.320312,221.189453 C787.459641,220.343095 788.029297,218.943369 788.029297,216.990234 C788.029297,215.688145 787.695641,214.516281 787.02832,213.474609 C786.360999,212.432938 785.473964,211.472661 784.367188,210.59375 C783.260411,209.714839 782.007168,208.892907 780.607422,208.12793 C779.207675,207.362952 777.759122,206.589848 776.261719,205.808594 C774.894524,205.124997 773.535489,204.368168 772.18457,203.538086 C770.833652,202.708004 769.621099,201.780279 768.546875,200.754883 C767.472651,199.729487 766.593753,198.598313 765.910156,197.361328 C765.226559,196.124343 764.884766,194.724617 764.884766,193.162109 C764.884766,191.14387 765.38118,189.32911 766.374023,187.717773 C767.366867,186.106437 768.677075,184.739263 770.304688,183.616211 C771.9323,182.493158 773.78775,181.630537 775.871094,181.02832 C777.954438,180.426104 780.102854,180.125 782.316406,180.125 C783.716153,180.125 785.124016,180.214517 786.540039,180.393555 C787.956062,180.572592 789.315098,180.824868 790.617188,181.150391 C791.919277,181.475913 793.123692,181.866534 794.230469,182.322266 C795.337245,182.777997 796.26497,183.298825 797.013672,183.884766 C797.208985,184.047527 797.249675,184.592769 797.135742,185.520508 C797.021809,186.448247 796.810223,187.489903 796.500977,188.645508 C796.19173,189.801113 795.825523,190.932286 795.402344,192.039062 C794.979165,193.145839 794.572268,193.959633 794.181641,194.480469 L790.8125,194.089844 C789.998694,191.225246 788.826831,189.03614 787.296875,187.522461 C785.766919,186.008781 783.927745,185.251953 781.779297,185.251953 C779.826162,185.251953 778.312505,185.69954 777.238281,186.594727 C776.164057,187.489913 775.626953,188.621087 775.626953,189.988281 C775.626953,191.029953 775.887367,191.957678 776.408203,192.771484 C776.929039,193.585291 777.669592,194.350257 778.629883,195.066406 C779.590174,195.782556 780.762037,196.506832 782.145508,197.239258 C783.528978,197.971683 785.083325,198.793615 786.808594,199.705078 C788.20834,200.421228 789.624342,201.186194 791.056641,202 C792.488939,202.813806 793.774734,203.749669 794.914062,204.807617 C796.053391,205.865565 796.981116,207.06998 797.697266,208.420898 C798.413415,209.771817 798.771484,211.358715 798.771484,213.181641 Z" id="Combined-Shape"></path>
        </g>
    </g>
</svg>